inDegrees=yes
name=ik_lifting_orientations
DataType=double
version=3
OpenSimVersion=4.5-2024-01-10-34fd6af
endheader
time	pelvis_tilt	pelvis_list	pelvis_rotation	pelvis_tx	pelvis_ty	pelvis_tz	hip_flexion_r	hip_adduction_r	hip_rotation_r	knee_angle_r	knee_angle_r_beta	ankle_angle_r	subtalar_angle_r	mtp_angle_r	hip_flexion_l	hip_adduction_l	hip_rotation_l	knee_angle_l	knee_angle_l_beta	ankle_angle_l	subtalar_angle_l	mtp_angle_l	lumbar_extension	lumbar_bending	lumbar_rotation	arm_flex_r	arm_add_r	arm_rot_r	elbow_flex_r	pro_sup_r	wrist_flex_r	wrist_dev_r	arm_flex_l	arm_add_l	arm_rot_l	elbow_flex_l	pro_sup_l	wrist_flex_l	wrist_dev_l
1.63	-8.55394212011063	-2.903488948888831	-142.9011167390648	0	0.9399999998679526	0	45.9065925565123	-10.4800569703178	0	60.41160045679134	1.054381334370319	-5.146950573449335	0	0	45.9065925565123	-10.4800569703178	0	60.41160045679134	1.054381334370319	-5.146950573449335	0	0	-14.32125977959165	2.319743164047235	42.59710391225476	5.01231050860525	-11.24069186776925	23.7871521507472	88.57195133890097	1.073970004141455	0	0	0	-12.21611504493333	0	88.95838932441164	1.073970004141455	0	0
1.64	-8.912073092913587	-3.017448781404648	-143.1129327935385	0	0.9399999998679526	0	45.90637263362319	-10.47965052360277	0	60.41152205758629	1.05437996604606	-5.146788334019924	0	0	45.90637263362319	-10.47965052360277	0	60.41152205758629	1.05437996604606	-5.146788334019924	0	0	-14.19075399786201	2.458764662016226	42.17662246278713	4.528850700740093	-11.09284313598779	24.0718211923816	88.69073985605904	1.073788677209621	0	0	0	-12.21646115671322	0	88.95856515714132	1.073788677209621	0	0
1.65	-9.214633860029513	-3.146036056471364	-142.7645784432648	0	0.9399999998679526	0	45.90606942144467	-10.47908990608374	0	60.41141406863326	1.054378081283274	-5.146564579446304	0	0	45.90606942144467	-10.47908990608374	0	60.41141406863326	1.054378081283274	-5.146564579446304	0	0	-13.97920669714324	2.708149089360473	41.3892650883942	3.869445190520739	-11.08622382452684	24.17554915875873	89.00447736331415	1.073538751231246	0	0	0	-12.21693807710496	0	88.95880751036559	1.073538751231246	0	0
1.66	-9.514136492694023	-3.284764787757867	-142.4016004126514	0	0.9399999998679526	0	45.90580611987135	-10.47860419444808	0	60.41132019142448	1.054376442816888	-5.146370852934452	0	0	45.90580611987135	-10.47860419444808	0	60.41132019142448	1.054376442816888	-5.146370852934452	0	0	-13.66246654749267	2.959411930414101	40.17132380461103	3.15272919483342	-10.9735882820099	24.73468992885661	89.3328520980496	1.073321613028422	0	0	0	-12.21735259142656	0	88.9590180692874	1.073321613028422	0	0
1.67	-9.869417914922225	-3.455377969412062	-141.820089083612	0	0.9399999998679526	0	45.9054674071959	-10.47797969282761	0	60.41119941755985	1.0543743349153	-5.146121823475694	0	0	45.9054674071959	-10.47797969282761	0	60.41119941755985	1.0543743349153	-5.146121823475694	0	0	-13.47798241456602	3.239939839471996	39.18868026567857	2.348215142387079	-11.14088154093005	24.82923815865071	89.9318655114118	1.07304226063126	0	0	0	-12.21788590854445	0	88.95928895731673	1.07304226063126	0	0
1.68	-10.21037610025864	-3.630193696683447	-141.3029089756046	0	0.9399999998679526	0	45.90516377229415	-10.47741948931257	0	60.41109126694494	1.054372447330982	-5.145898443935799	0	0	45.90516377229415	-10.47741948931257	0	60.41109126694494	1.054372447330982	-5.145898443935799	0	0	-13.30854808279588	3.455593785119178	38.96350177304473	1.725600616939809	-11.51488013074698	24.29799314218097	90.62006777793704	1.072791924144705	0	0	0	-12.21836368263367	0	88.95953170861391	1.072791924144705	0	0
1.69	-10.50315474104119	-3.788046706219792	-140.9945416328361	0	0.9399999998679526	0	45.90504698774347	-10.4772051580623	0	60.41104951186571	1.05437171856737	-5.145813079248299	0	0	45.90504698774347	-10.4772051580623	0	60.41104951186571	1.05437171856737	-5.145813079248299	0	0	-13.14466925206958	3.616802311223672	38.91541579593433	1.901918253842971	-11.45800855713135	23.683147708184	90.26220437026474	1.07269549299873	0	0	0	-12.21854795796954	0	88.95962521790368	1.07269549299873	0	0
1.7	-10.76273328813861	-3.875659683338008	-140.6632172517619	0	0.9399999998679526	0	45.90484696584242	-10.47683698368911	0	60.41097818713899	1.05437047371605	-5.145666373534522	0	0	45.90484696584242	-10.47683698368911	0	60.41097818713899	1.05437047371605	-5.145666373534522	0	0	-12.93555566242708	3.830612414178973	38.36372013810315	2.045470974593851	-11.27476127417453	23.90914962327634	89.87429105433533	1.072530495249698	0	0	0	-12.21886299082844	0	88.95978521622823	1.072530495249698	0	0
1.71	-11.00567125682615	-4.006634610452561	-140.3235011426494	0	0.9399999998679526	0	45.90468070069101	-10.47653092827662	0	60.41091891659134	1.054369439249845	-5.145544429065011	0	0	45.90468070069101	-10.47653092827662	0	60.41091891659134	1.054369439249845	-5.145544429065011	0	0	-12.7408159399173	3.968342103772915	38.21036222514785	2.288216596252425	-11.14742250012399	24.02689406403803	89.85153503303097	1.072393353680368	0	-1.196391699373358e-51	0	-12.21912481876933	0	88.95991820241387	1.072393353680368	0	-1.196391699373358e-51
1.72	-11.26594184071523	-4.098831452359721	-140.2609631621381	0	0.9399999998679526	0	45.90450506895136	-10.47620742877835	0	60.41085636246406	1.054368347474363	-5.145415534602759	0	0	45.90450506895136	-10.47620742877835	0	60.41085636246406	1.054368347474363	-5.145415534602759	0	0	-12.54465448045449	4.10589933158943	38.31107098714186	2.72961523752628	-11.02388426343023	24.03429431840749	89.64681113673875	1.072248529155137	0	0	0	-12.2194012404767	0	88.96005863876084	1.072248529155137	0	0
1.73	-11.53720902064086	-4.207776946799713	-140.2171921866905	0	0.9399999998679526	0	45.90424034133754	-10.47571950416771	0	60.41076216570263	1.054366703430731	-5.145221129970404	0	0	45.90424034133754	-10.47571950416771	0	60.41076216570263	1.054366703430731	-5.145221129970404	0	0	-12.58546449237662	4.209959197690619	38.48242817097422	3.51851851887681	-11.06788711781662	23.95010212044223	89.30633080069485	1.072030306062339	0	0	0	-12.21981763557329	0	88.96027024969887	1.072030306062339	0	0
1.74	-11.92482755777144	-4.377066796209538	-140.0229245447686	0	0.9399999998679526	0	45.90397589408175	-10.47523236131507	0	60.41066807793165	1.054365061289342	-5.145027090951829	0	0	45.90397589408175	-10.47523236131507	0	60.41066807793165	1.054365061289342	-5.145027090951829	0	0	-12.46636144433754	4.378104994429253	39.08679451286937	3.901310102312066	-10.90984384549301	23.4094444949545	89.29655945985243	1.071812308023859	0	0	0	-12.22023360155879	0	88.9604816424023	1.071812308023859	0	0
1.75	-12.52171289033063	-4.618523978043944	-139.8583078085011	0	0.9399999998679526	0	45.90374929501679	-10.47481567928788	0	60.41058737862949	1.054363652820815	-5.144861199884199	0	0	45.90374929501679	-10.47481567928788	0	60.41058737862949	1.054363652820815	-5.144861199884199	0	0	-12.55558159271363	4.635955457816036	39.69474705187709	4.27921965667837	-10.77415192941587	22.88322062167823	89.29822796964831	1.071625430115624	0	0	0	-12.22059030982956	0	88.9606628579176	1.071625430115624	0	0
1.76	-13.21375621255885	-4.899699567498145	-139.6416972360591	0	0.9399999998679526	0	45.90349539109217	-10.47434923025798	0	60.41049693603104	1.054362074299688	-5.144675562261681	0	0	45.90349539109217	-10.47434923025798	0	60.41049693603104	1.054362074299688	-5.144675562261681	0	0	-12.83351229636284	4.942178268892325	41.04154580935022	4.920560633336684	-10.67885173121412	21.43523662763576	88.97688922949203	1.07141600306698	0	0	0	-12.2209900990575	0	88.96086593933651	1.07141600306698	0	0
1.77	-13.51969345380998	-5.113320966126077	-138.8835020547675	0	0.9399999998679526	0	45.90324515276508	-10.47388987496517	0	60.41040778645323	1.054360518346028	-5.14449280442273	0	0	45.90324515276508	-10.47388987496517	0	60.41040778645323	1.054360518346028	-5.14449280442273	0	0	-12.71836092230803	5.1728962137753	41.70192322683844	5.523750837686896	-10.68136573119058	20.15916831033261	88.76306672750296	1.071209575541828	0	0	0	-12.22138419327807	0	88.96106611211843	1.071209575541828	0	0
1.78	-13.80327574588617	-5.358268050015038	-137.8474363068777	0	0.9399999998679526	0	45.90299348434918	-10.47342863716202	0	60.41031805157485	1.054358952176947	-5.144309381429142	0	0	45.90299348434918	-10.47342863716202	0	60.41031805157485	1.054358952176947	-5.144309381429142	0	0	-12.79963052140333	5.434816706127043	41.29099618437785	6.430911858353343	-10.63212562462292	19.75892418835412	88.48545745527834	1.071001888604783	0	0	0	-12.22178081413917	0	88.96126750615505	1.071001888604783	0	0
1.79	2.772197166638956	1.246867610765414	-130.5891875650643	0	0.9399999998679526	0	45.89945955023021	-10.4670849690332	0	60.40905281218966	1.054336869583849	-5.141806477824756	0	0	45.89945955023021	-10.4670849690332	0	60.40905281218966	1.054336869583849	-5.141806477824756	0	0	4.189490210740641	-1.362673409527884	33.41288099753866	7.547213710270114	-10.24000645351019	20.76191587682253	87.74898957778193	1.068077278389564	0	0	0	-12.22737552148843	0	88.96410350117453	1.068077278389564	0	0
1.8	2.715566521277097	1.245954080788415	-130.4214945327737	0	0.9399999998679526	0	45.89917391054434	-10.4665656336647	0	60.40895106930093	1.054335093835451	-5.141600751835235	0	0	45.89917391054434	-10.4665656336647	0	60.40895106930093	1.054335093835451	-5.141600751835235	0	0	4.565823241614717	-1.356339873524813	32.69148202754606	8.741487753676427	-9.948435980678635	21.57397055829408	86.93341902852599	1.067841430113497	0	0	0	-12.22782598453242	0	88.96433220327155	1.067841430113497	0	0
